<?xml version="1.0" standalone="no"?>
<!DOCTYPE svg PUBLIC "-//W3C//DTD SVG 20010904//EN"
 "http://www.w3.org/TR/2001/REC-SVG-20010904/DTD/svg10.dtd">
<svg version="1.0" xmlns="http://www.w3.org/2000/svg"
 width="305.000000pt" height="305.000000pt" viewBox="0 0 305.000000 305.000000"
 preserveAspectRatio="xMidYMid meet">
<metadata>
Created by potrace 1.11, written by Peter Selinger 2001-2013
</metadata>
<g transform="translate(0.000000,305.000000) scale(0.100000,-0.100000)"
fill="#000000" stroke="none">
<path d="M1805 2372 c-49 -35 -70 -65 -85 -120 -29 -110 73 -231 196 -232 205
-1 291 239 125 350 -29 20 -52 25 -116 28 -75 3 -82 2 -120 -26z"/>
<path d="M863 2309 c-7 -7 -13 -16 -13 -20 0 -4 -20 -42 -43 -85 -24 -44 -60
-108 -80 -144 -192 -353 -247 -454 -245 -456 2 -1 48 -19 103 -39 387 -143
627 -362 768 -700 39 -94 41 -115 6 -55 -150 258 -461 481 -945 681 -43 18
-80 34 -82 35 -2 1 8 21 21 45 13 24 49 91 80 149 31 58 77 143 102 190 25 47
53 100 61 119 14 30 19 33 48 28 28 -4 34 -1 50 26 17 30 17 32 -1 44 -19 15
-107 43 -132 43 -9 0 -27 -19 -39 -43 -152 -275 -353 -649 -350 -651 1 -2 48
-18 103 -36 237 -77 479 -189 662 -306 136 -87 384 -317 447 -416 50 -78 35
69 -26 247 -83 242 -284 459 -597 647 l-107 64 16 29 c9 17 62 118 118 225
137 266 145 280 160 280 29 0 134 -42 193 -77 35 -21 94 -67 131 -102 77 -72
87 -62 28 27 -63 93 -160 170 -283 220 -91 38 -138 47 -154 31z"/>
<path d="M1440 2255 c0 -3 8 -22 19 -43 66 -131 71 -277 20 -549 -74 -400 -78
-430 -75 -603 3 -158 24 -312 46 -334 5 -5 15 15 25 50 100 359 235 601 484
866 83 88 270 253 349 307 42 29 41 47 -5 56 -129 24 -294 -6 -448 -82 -119
-59 -112 -59 -124 -2 -24 110 -110 236 -203 299 -54 36 -88 49 -88 35z"/>
<path d="M2624 2018 c-47 -10 -117 -65 -140 -110 -49 -96 -26 -208 56 -267
103 -74 254 -59 324 32 105 137 38 312 -129 342 -65 12 -68 12 -111 3z"/>
<path d="M2350 1919 c-19 -12 -70 -49 -114 -82 -281 -214 -504 -519 -662 -905
-40 -95 -75 -204 -70 -210 2 -2 30 21 62 51 241 223 465 365 697 442 214 71
463 91 671 54 60 -10 112 -17 114 -14 16 16 -86 132 -164 186 -45 31 -151 75
-200 83 -16 2 -84 5 -151 5 l-123 1 -21 41 c-51 102 -58 200 -19 302 12 32 20
60 18 62 -2 2 -19 -5 -38 -16z"/>
<path d="M130 1419 c0 -6 -29 -60 -65 -119 -36 -59 -65 -112 -65 -118 0 -11
49 -19 160 -27 36 -3 76 -7 90 -10 14 -3 41 -7 60 -9 28 -4 127 -25 240 -51
46 -11 237 -77 250 -86 12 -9 11 -10 -5 -4 -82 30 -215 69 -309 90 -109 24
-246 42 -246 32 0 -2 7 -21 15 -40 31 -74 15 -114 -65 -167 -25 -17 -40 -30
-35 -31 6 -1 91 -1 190 -1 375 0 683 -59 924 -177 91 -44 111 -50 90 -25 -21
26 -227 159 -329 213 -52 28 -92 51 -87 51 12 0 137 -65 222 -115 42 -25 79
-45 81 -45 3 0 30 -16 61 -36 98 -62 74 -25 -37 59 -180 135 -238 171 -380
242 -179 90 -290 126 -635 207 -27 7 -51 13 -53 14 -2 1 10 29 27 63 17 33 31
62 31 65 0 6 -91 36 -112 36 -10 0 -18 -5 -18 -11z m720 -439 c8 -5 11 -10 5
-10 -5 0 -17 5 -25 10 -8 5 -10 10 -5 10 6 0 17 -5 25 -10z m60 -25 c14 -8 21
-14 15 -14 -5 0 -21 6 -35 14 -14 8 -20 14 -15 14 6 0 21 -6 35 -14z"/>
<path d="M2719 1157 c-45 -30 -73 -87 -65 -132 25 -132 221 -154 271 -31 28
69 1 135 -68 167 -56 25 -97 24 -138 -4z"/>
<path d="M2405 1085 c-134 -27 -200 -45 -330 -92 -200 -71 -442 -204 -560
-308 -38 -34 -39 -35 -10 -24 16 5 35 14 41 20 19 16 202 87 278 109 87 24
253 57 321 64 28 3 79 8 115 12 36 3 147 6 248 6 107 -1 182 3 182 9 0 5 -7 9
-15 9 -8 0 -32 17 -55 38 -34 33 -40 45 -40 81 0 23 7 55 15 72 l16 29 -48 -1
c-26 -1 -97 -12 -158 -24z"/>
</g>
</svg>
